<svg width="24" height="24" viewBox="0 0 24 24" fill="none" xmlns="http://www.w3.org/2000/svg">
<path d="M15.491 9.091C17.098 9.091 18.4 10.393 18.4 12C18.4 13.607 17.098 14.909 15.491 14.909C13.884 14.909 12.582 13.607 12.582 12C12.583 10.394 13.885 9.092 15.491 9.091ZM5.59998 12C5.59998 13.607 6.90198 14.909 8.50898 14.909C10.116 14.909 11.418 13.607 11.418 12C11.418 10.393 10.116 9.091 8.50898 9.091C6.90298 9.092 5.60098 10.394 5.59998 12ZM12 22.4C6.26498 22.4 1.59998 17.735 1.59998 12C1.59998 6.265 6.26498 1.6 12 1.6C17.735 1.6 22.4 6.265 22.4 12C22.4 17.735 17.735 22.4 12 22.4ZM12 3.2C7.14798 3.2 3.19998 7.148 3.19998 12C3.19998 16.852 7.14798 20.8 12 20.8C16.852 20.8 20.8 16.852 20.8 12C20.8 7.148 16.852 3.2 12 3.2Z" fill="#F5F7FA"/>
</svg>
