<svg width="24" height="24" viewBox="0 0 24 24" fill="none" xmlns="http://www.w3.org/2000/svg">
<path d="M16.0008 17.0004C17.3841 17.0004 18.5633 16.5129 19.5383 15.5379C20.5133 14.5629 21.0008 13.3837 21.0008 12.0004C21.0008 10.6171 20.5133 9.43789 19.5383 8.46289C18.5633 7.48789 17.3841 7.00039 16.0008 7.00039C15.5508 7.00039 15.1133 7.05872 14.6883 7.17539C14.2633 7.29206 13.8675 7.45872 13.5008 7.67539C13.9841 8.27539 14.355 8.94206 14.6133 9.67539C14.8716 10.4087 15.0008 11.1837 15.0008 12.0004C15.0008 12.8171 14.8716 13.5921 14.6133 14.3254C14.355 15.0587 13.9841 15.7254 13.5008 16.3254C13.8675 16.5421 14.2633 16.7087 14.6883 16.8254C15.1133 16.9421 15.5508 17.0004 16.0008 17.0004ZM12.0008 15.0004C12.3175 14.5837 12.5633 14.1212 12.7383 13.6129C12.9133 13.1046 13.0008 12.5671 13.0008 12.0004C13.0008 11.4337 12.9133 10.8962 12.7383 10.3879C12.5633 9.87956 12.3175 9.41706 12.0008 9.00039C11.6841 9.41706 11.4383 9.87956 11.2633 10.3879C11.0883 10.8962 11.0008 11.4337 11.0008 12.0004C11.0008 12.5671 11.0883 13.1046 11.2633 13.6129C11.4383 14.1212 11.6841 14.5837 12.0008 15.0004ZM8.00079 17.0004C8.45079 17.0004 8.88829 16.9421 9.31329 16.8254C9.73829 16.7087 10.1341 16.5421 10.5008 16.3254C10.0175 15.7254 9.64663 15.0587 9.38829 14.3254C9.12996 13.5921 9.00079 12.8171 9.00079 12.0004C9.00079 11.1837 9.12996 10.4087 9.38829 9.67539C9.64663 8.94206 10.0175 8.27539 10.5008 7.67539C10.1341 7.45872 9.73829 7.29206 9.31329 7.17539C8.88829 7.05872 8.45079 7.00039 8.00079 7.00039C6.61746 7.00039 5.43829 7.48789 4.46329 8.46289C3.48829 9.43789 3.00079 10.6171 3.00079 12.0004C3.00079 13.3837 3.48829 14.5629 4.46329 15.5379C5.43829 16.5129 6.61746 17.0004 8.00079 17.0004ZM8.00079 19.0004C6.05079 19.0004 4.39663 18.3212 3.03829 16.9629C1.67996 15.6046 1.00079 13.9504 1.00079 12.0004C1.00079 10.0504 1.67996 8.39622 3.03829 7.03789C4.39663 5.67956 6.05079 5.00039 8.00079 5.00039C8.75079 5.00039 9.46329 5.10872 10.1383 5.32539C10.8133 5.54206 11.4341 5.85039 12.0008 6.25039C12.5675 5.85039 13.1883 5.54206 13.8633 5.32539C14.5383 5.10872 15.2508 5.00039 16.0008 5.00039C17.9508 5.00039 19.605 5.67956 20.9633 7.03789C22.3216 8.39622 23.0008 10.0504 23.0008 12.0004C23.0008 13.9504 22.3216 15.6046 20.9633 16.9629C19.605 18.3212 17.9508 19.0004 16.0008 19.0004C15.2508 19.0004 14.5383 18.8921 13.8633 18.6754C13.1883 18.4587 12.5675 18.1504 12.0008 17.7504C11.4341 18.1504 10.8133 18.4587 10.1383 18.6754C9.46329 18.8921 8.75079 19.0004 8.00079 19.0004Z" fill="#F5F7FA"/>
</svg>
