<svg width="24" height="24" viewBox="0 0 24 24" fill="none" xmlns="http://www.w3.org/2000/svg">
<path d="M11.475 10.225L7.84995 13.85C7.79995 13.9 7.76245 13.9542 7.73745 14.0125C7.71245 14.0708 7.69995 14.1333 7.69995 14.2C7.69995 14.3333 7.74578 14.45 7.83745 14.55C7.92912 14.65 8.04995 14.7 8.19995 14.7H15.8C15.95 14.7 16.0708 14.65 16.1625 14.55C16.2541 14.45 16.3 14.3333 16.3 14.2C16.3 14.1667 16.25 14.05 16.15 13.85L12.525 10.225C12.4416 10.1417 12.3583 10.0833 12.275 10.05C12.1916 10.0167 12.1 10 12 10C11.9 10 11.8083 10.0167 11.725 10.05C11.6416 10.0833 11.5583 10.1417 11.475 10.225Z" fill="#F5F7FA"/>
</svg>
