<svg width="24" height="24" viewBox="0 0 24 24" fill="none" xmlns="http://www.w3.org/2000/svg">
<path d="M12 13.4L9.08327 16.325C8.89877 16.5083 8.66402 16.6 8.37902 16.6C8.09402 16.6 7.85936 16.5083 7.67502 16.325C7.49169 16.1417 7.40002 15.9083 7.40002 15.625C7.40002 15.3417 7.49169 15.1083 7.67502 14.925L10.6 12L7.67502 9.10825C7.49169 8.92375 7.40002 8.689 7.40002 8.404C7.40002 8.119 7.49169 7.88433 7.67502 7.7C7.85836 7.51667 8.09169 7.425 8.37502 7.425C8.65836 7.425 8.89169 7.51667 9.07502 7.7L12 10.625L14.8918 7.7C15.0763 7.51667 15.311 7.425 15.596 7.425C15.881 7.425 16.1157 7.51667 16.3 7.7C16.5 7.9 16.6 8.1375 16.6 8.4125C16.6 8.6875 16.5 8.91667 16.3 9.1L13.375 12L16.3 14.9167C16.4834 15.1012 16.575 15.336 16.575 15.621C16.575 15.906 16.4834 16.1407 16.3 16.325C16.1 16.525 15.8625 16.625 15.5875 16.625C15.3125 16.625 15.0834 16.525 14.9 16.325L12 13.4Z" fill="#F5F7FA"/>
</svg>
