<svg width="24" height="24" viewBox="0 0 24 24" fill="none" xmlns="http://www.w3.org/2000/svg">
<path d="M8.625 17.4H15.375C15.6937 17.4 15.9609 17.3138 16.1766 17.1413C16.3922 16.9688 16.5 16.755 16.5 16.5V7.5C16.5 7.245 16.3922 7.03125 16.1766 6.85875C15.9609 6.68625 15.6937 6.6 15.375 6.6H8.625C8.30625 6.6 8.03906 6.68625 7.82344 6.85875C7.60781 7.03125 7.5 7.245 7.5 7.5V16.5C7.5 16.755 7.60781 16.9688 7.82344 17.1413C8.03906 17.3138 8.30625 17.4 8.625 17.4ZM21 19.2C21 19.695 20.7797 20.1188 20.3391 20.4713C19.8984 20.8238 19.3687 21 18.75 21H5.25C4.63125 21 4.10156 20.8238 3.66094 20.4713C3.22031 20.1188 3 19.695 3 19.2V4.8C3 4.305 3.22031 3.88125 3.66094 3.52875C4.10156 3.17625 4.63125 3 5.25 3H18.75C19.3687 3 19.8984 3.17625 20.3391 3.52875C20.7797 3.88125 21 4.305 21 4.8V19.2ZM18.75 19.2V4.8H5.25V19.2H18.75Z" fill="white"/>
</svg>
