<svg width="24" height="24" viewBox="0 0 24 24" fill="none" xmlns="http://www.w3.org/2000/svg">
<path d="M19.2875 8.7125C19.0958 8.52083 19 8.28333 19 8C19 7.71667 19.0958 7.47917 19.2875 7.2875C19.4792 7.09583 19.7167 7 20 7C20.2833 7 20.5208 7.09583 20.7125 7.2875C20.9042 7.47917 21 7.71667 21 8C21 8.28333 20.9042 8.52083 20.7125 8.7125C20.5208 8.90417 20.2833 9 20 9C19.7167 9 19.4792 8.90417 19.2875 8.7125ZM19.2875 12.7125C19.0958 12.5208 19 12.2833 19 12C19 11.7167 19.0958 11.4792 19.2875 11.2875C19.4792 11.0958 19.7167 11 20 11C20.2833 11 20.5208 11.0958 20.7125 11.2875C20.9042 11.4792 21 11.7167 21 12C21 12.2833 20.9042 12.5208 20.7125 12.7125C20.5208 12.9042 20.2833 13 20 13C19.7167 13 19.4792 12.9042 19.2875 12.7125ZM19.2875 16.7125C19.0958 16.5208 19 16.2833 19 16C19 15.7167 19.0958 15.4792 19.2875 15.2875C19.4792 15.0958 19.7167 15 20 15C20.2833 15 20.5208 15.0958 20.7125 15.2875C20.9042 15.4792 21 15.7167 21 16C21 16.2833 20.9042 16.5208 20.7125 16.7125C20.5208 16.9042 20.2833 17 20 17C19.7167 17 19.4792 16.9042 19.2875 16.7125Z" fill="#F5F7FA"/>
<rect x="3" y="3" width="2" height="18" rx="1" fill="#F5F7FA"/>
<path d="M7 20C7 20.2833 7.09583 20.5208 7.2875 20.7125C7.47917 20.9042 7.71667 21 8 21C8.28333 21 8.52083 20.9042 8.7125 20.7125C8.90417 20.5208 9 20.2833 9 20C9 19.7167 8.90417 19.4792 8.7125 19.2875C8.52083 19.0958 8.28333 19 8 19C7.71667 19 7.47917 19.0958 7.2875 19.2875C7.09583 19.4792 7 19.7167 7 20Z" fill="#F5F7FA"/>
<path d="M11 20C11 20.2833 11.0958 20.5208 11.2875 20.7125C11.4792 20.9042 11.7167 21 12 21C12.2833 21 12.5208 20.9042 12.7125 20.7125C12.9042 20.5208 13 20.2833 13 20C13 19.7167 12.9042 19.4792 12.7125 19.2875C12.5208 19.0958 12.2833 19 12 19C11.7167 19 11.4792 19.0958 11.2875 19.2875C11.0958 19.4792 11 19.7167 11 20Z" fill="#F5F7FA"/>
<path d="M15 20C15 20.2833 15.0958 20.5208 15.2875 20.7125C15.4792 20.9042 15.7167 21 16 21C16.2833 21 16.5208 20.9042 16.7125 20.7125C16.9042 20.5208 17 20.2833 17 20C17 19.7167 16.9042 19.4792 16.7125 19.2875C16.5208 19.0958 16.2833 19 16 19C15.7167 19 15.4792 19.0958 15.2875 19.2875C15.0958 19.4792 15 19.7167 15 20Z" fill="#F5F7FA"/>
<path d="M19 20C19 20.2833 19.0958 20.5208 19.2875 20.7125C19.4792 20.9042 19.7167 21 20 21C20.2833 21 20.5208 20.9042 20.7125 20.7125C20.9042 20.5208 21 20.2833 21 20C21 19.7167 20.9042 19.4792 20.7125 19.2875C20.5208 19.0958 20.2833 19 20 19C19.7167 19 19.4792 19.0958 19.2875 19.2875C19.0958 19.4792 19 19.7167 19 20Z" fill="#F5F7FA"/>
<path d="M7 4C7 4.28333 7.09583 4.52083 7.2875 4.7125C7.47917 4.90417 7.71667 5 8 5C8.28333 5 8.52083 4.90417 8.7125 4.7125C8.90417 4.52083 9 4.28333 9 4C9 3.71667 8.90417 3.47917 8.7125 3.2875C8.52083 3.09583 8.28333 3 8 3C7.71667 3 7.47917 3.09583 7.2875 3.2875C7.09583 3.47917 7 3.71667 7 4Z" fill="#F5F7FA"/>
<path d="M11 4C11 4.28333 11.0958 4.52083 11.2875 4.7125C11.4792 4.90417 11.7167 5 12 5C12.2833 5 12.5208 4.90417 12.7125 4.7125C12.9042 4.52083 13 4.28333 13 4C13 3.71667 12.9042 3.47917 12.7125 3.2875C12.5208 3.09583 12.2833 3 12 3C11.7167 3 11.4792 3.09583 11.2875 3.2875C11.0958 3.47917 11 3.71667 11 4Z" fill="#F5F7FA"/>
<path d="M15 4C15 4.28333 15.0958 4.52083 15.2875 4.7125C15.4792 4.90417 15.7167 5 16 5C16.2833 5 16.5208 4.90417 16.7125 4.7125C16.9042 4.52083 17 4.28333 17 4C17 3.71667 16.9042 3.47917 16.7125 3.2875C16.5208 3.09583 16.2833 3 16 3C15.7167 3 15.4792 3.09583 15.2875 3.2875C15.0958 3.47917 15 3.71667 15 4Z" fill="#F5F7FA"/>
<path d="M19 4C19 4.28333 19.0958 4.52083 19.2875 4.7125C19.4792 4.90417 19.7167 5 20 5C20.2833 5 20.5208 4.90417 20.7125 4.7125C20.9042 4.52083 21 4.28333 21 4C21 3.71667 20.9042 3.47917 20.7125 3.2875C20.5208 3.09583 20.2833 3 20 3C19.7167 3 19.4792 3.09583 19.2875 3.2875C19.0958 3.47917 19 3.71667 19 4Z" fill="#F5F7FA"/>
</svg>
